<svg width="19" height="34" viewBox="0 0 19 34" fill="none" xmlns="http://www.w3.org/2000/svg">
<path d="M9.16667 33.3333C6.61111 33.3333 4.44444 32.4444 2.66667 30.6667C0.888889 28.8889 0 26.7222 0 24.1667V6.66667C0 4.83333 0.652778 3.26389 1.95833 1.95833C3.26389 0.652778 4.83333 0 6.66667 0C8.5 0 10.0694 0.652778 11.375 1.95833C12.6806 3.26389 13.3333 4.83333 13.3333 6.66667V22.5C13.3333 23.6667 12.9306 24.6528 12.125 25.4583C11.3194 26.2639 10.3333 26.6667 9.16667 26.6667C8 26.6667 7.01389 26.2639 6.20833 25.4583C5.40278 24.6528 5 23.6667 5 22.5V6.66667H7.5V22.5C7.5 22.9722 7.66 23.3683 7.98 23.6883C8.3 24.0083 8.69556 24.1678 9.16667 24.1667C9.63889 24.1667 10.035 24.0067 10.355 23.6867C10.675 23.3667 10.8344 22.9711 10.8333 22.5V6.66667C10.8333 5.5 10.4306 4.51389 9.625 3.70833C8.81944 2.90278 7.83333 2.5 6.66667 2.5C5.5 2.5 4.51389 2.90278 3.70833 3.70833C2.90278 4.51389 2.5 5.5 2.5 6.66667V24.1667C2.5 26 3.15278 27.5694 4.45833 28.875C5.76389 30.1806 7.33333 30.8333 9.16667 30.8333C11 30.8333 12.5694 30.1806 13.875 28.875C15.1806 27.5694 15.8333 26 15.8333 24.1667V6.66667H18.3333V24.1667C18.3333 26.7222 17.4444 28.8889 15.6667 30.6667C13.8889 32.4444 11.7222 33.3333 9.16667 33.3333Z" fill="#FDBF50"/>
</svg>
