<svg width="25" height="26" viewBox="0 0 25 26" fill="none" xmlns="http://www.w3.org/2000/svg">
<path d="M12.4875 0.5C5.5875 0.5 0 6.1 0 13C0 19.9 5.5875 25.5 12.4875 25.5C19.4 25.5 25 19.9 25 13C25 6.1 19.4 0.5 12.4875 0.5ZM8.125 8C9.1625 8 10 8.8375 10 9.875C10 10.9125 9.1625 11.75 8.125 11.75C7.0875 11.75 6.25 10.9125 6.25 9.875C6.25 8.8375 7.0875 8 8.125 8ZM12.5 20.5C9.65 20.5 7.225 18.425 6.25 15.5H18.75C17.775 18.425 15.35 20.5 12.5 20.5ZM16.875 11.75C15.8375 11.75 15 10.9125 15 9.875C15 8.8375 15.8375 8 16.875 8C17.9125 8 18.75 8.8375 18.75 9.875C18.75 10.9125 17.9125 11.75 16.875 11.75Z" fill="white" fill-opacity="0.62"/>
</svg>
