<svg width="32" height="31" viewBox="0 0 32 31" fill="none" xmlns="http://www.w3.org/2000/svg">
<path d="M12.06 3.92C11.48 6.48 13.16 10.84 16 10.84C18.82 10.84 20.5 6.48 19.92 3.92C19.48 1.96 17.76 0.660004 16 0.660004C14.22 0.660004 12.52 1.96 12.06 3.92ZM3.80004 5.72C3.30004 7.88 4.74004 11.58 7.14004 11.58C9.54004 11.58 10.98 7.88 10.48 5.72C10.1 4.06 8.64004 2.94 7.14004 2.94C5.64004 2.94 4.18004 4.06 3.80004 5.72ZM21.52 5.72C21.02 7.88 22.46 11.58 24.84 11.58C27.24 11.58 28.68 7.88 28.18 5.72C27.8 4.06 26.34 2.94 24.84 2.94C23.36 2.94 21.9 4.06 21.52 5.72ZM20.34 28.58L22.84 19.98C24.4 15 21.42 11.94 16 11.94C10.56 11.94 7.58004 15 9.12004 19.98L11.64 28.58C12.1 30.02 14 31 16 31C17.96 31 19.88 30.02 20.34 28.58ZM8.14004 13.32C7.16004 14.66 6.22004 16.98 7.30004 20.5L9.54004 28.08C8.86004 28.48 8.00004 28.7 7.14004 28.7C5.44004 28.7 3.84004 27.88 3.44004 26.64L1.30004 19.34C3.65376e-05 15.12 2.52004 12.54 7.14004 12.54C7.68004 12.54 8.22004 12.58 8.72004 12.66C8.52004 12.86 8.32004 13.1 8.14004 13.32ZM24.84 12.54C29.46 12.54 32 15.12 30.68 19.34L28.54 26.64C28.14 27.88 26.54 28.7 24.84 28.7C23.98 28.7 23.12 28.48 22.44 28.08L24.66 20.54C25.76 16.98 24.82 14.66 23.82 13.32C23.66 13.1 23.46 12.86 23.26 12.66C23.76 12.58 24.28 12.54 24.84 12.54Z" fill="#FDBF50"/>
</svg>
