<svg width="263" height="81" viewBox="0 0 263 81" fill="none" xmlns="http://www.w3.org/2000/svg">
<path fill-rule="evenodd" clip-rule="evenodd" d="M22 10C15.3726 10 10 15.3726 10 22V42.0102C10 48.6376 15.3726 54.0102 22 54.0102H48.8571L52.7133 70.1936L66.1998 53.6294C71.3701 52.2936 75.1892 47.5979 75.1892 42.0102V22C75.1892 15.3726 69.8167 10 63.1892 10H22Z" fill="#98077B"/>
<path d="M33.4076 38.4305L23.4476 35.1665V31.5185L33.4076 28.3985V32.0225L27.5036 33.2945L33.4076 34.8065V38.4305ZM36.0806 43.4945L42.8246 23.2865H47.0726L40.3286 43.4945H36.0806ZM49.7456 38.4305V34.8065L55.6496 33.3185L49.7456 32.0225V28.3985L59.7056 31.5185V35.1665L49.7456 38.4305Z" fill="white"/>
<path d="M97.2052 50.7888C95.8185 50.7888 94.5919 50.6288 93.5252 50.3088C92.4799 49.9888 91.5839 49.4021 90.8372 48.5488C90.1119 47.6955 89.5572 46.4795 89.1732 44.9008C88.8105 43.3008 88.6292 41.2315 88.6292 38.6928C88.6292 36.2395 88.8212 34.2341 89.2052 32.6768C89.6105 31.0981 90.1865 29.8821 90.9332 29.0288C91.6799 28.1541 92.5865 27.5461 93.6532 27.2048C94.7199 26.8635 95.9252 26.6928 97.2692 26.6928C98.3359 26.6928 99.3279 26.7568 100.245 26.8848C101.184 26.9915 102.027 27.1301 102.773 27.3008C103.52 27.4501 104.149 27.6208 104.661 27.8128V31.4928C104.277 31.4075 103.755 31.3221 103.093 31.2368C102.453 31.1515 101.717 31.0875 100.885 31.0448C100.053 30.9808 99.1785 30.9488 98.2612 30.9488C97.3652 30.9488 96.5972 31.0555 95.9572 31.2688C95.3385 31.4608 94.8372 31.8341 94.4532 32.3888C94.0905 32.9221 93.8132 33.7008 93.6212 34.7248C93.4505 35.7488 93.3652 37.0821 93.3652 38.7248C93.3652 40.3035 93.4399 41.6048 93.5892 42.6288C93.7599 43.6528 94.0265 44.4528 94.3892 45.0288C94.7519 45.5835 95.2425 45.9781 95.8612 46.2128C96.5012 46.4261 97.3012 46.5328 98.2612 46.5328C99.8825 46.5328 101.195 46.5008 102.197 46.4368C103.221 46.3728 104.043 46.2981 104.661 46.2128V49.8608C104.085 50.0528 103.424 50.2235 102.677 50.3728C101.931 50.5008 101.109 50.5968 100.213 50.6608C99.3172 50.7461 98.3145 50.7888 97.2052 50.7888ZM116.827 50.7888C115.205 50.7888 113.787 50.6395 112.571 50.3408C111.355 50.0208 110.331 49.4448 109.499 48.6128C108.688 47.7595 108.08 46.5435 107.675 44.9648C107.269 43.3861 107.067 41.3275 107.067 38.7888C107.067 36.2501 107.269 34.1915 107.675 32.6128C108.101 31.0128 108.72 29.7861 109.531 28.9328C110.341 28.0795 111.355 27.4928 112.571 27.1728C113.787 26.8528 115.205 26.6928 116.827 26.6928C118.448 26.6928 119.867 26.8528 121.083 27.1728C122.299 27.4928 123.312 28.0795 124.123 28.9328C124.933 29.7861 125.541 31.0128 125.947 32.6128C126.352 34.1915 126.555 36.2501 126.555 38.7888C126.555 41.3275 126.352 43.3861 125.947 44.9648C125.541 46.5435 124.933 47.7595 124.123 48.6128C123.312 49.4448 122.299 50.0208 121.083 50.3408C119.867 50.6395 118.448 50.7888 116.827 50.7888ZM116.827 46.5328C117.787 46.5328 118.587 46.4261 119.227 46.2128C119.867 45.9995 120.368 45.6261 120.731 45.0928C121.115 44.5381 121.392 43.7595 121.563 42.7568C121.733 41.7328 121.819 40.4101 121.819 38.7888C121.819 37.0821 121.733 35.7168 121.563 34.6928C121.392 33.6688 121.115 32.8901 120.731 32.3568C120.368 31.8021 119.867 31.4288 119.227 31.2368C118.587 31.0448 117.787 30.9488 116.827 30.9488C115.909 30.9488 115.131 31.0448 114.491 31.2368C113.851 31.4288 113.328 31.8021 112.923 32.3568C112.539 32.8901 112.251 33.6688 112.059 34.6928C111.888 35.7168 111.803 37.0821 111.803 38.7888C111.803 40.4101 111.877 41.7328 112.027 42.7568C112.197 43.7595 112.475 44.5381 112.859 45.0928C113.243 45.6261 113.755 45.9995 114.395 46.2128C115.056 46.4261 115.867 46.5328 116.827 46.5328ZM130.21 50.5968V26.9168H134.018L143.938 42.5328V26.9168H148.674V50.5968H144.866L134.978 34.9808V50.5968H130.21ZM152.741 50.5968V26.9168H156.549L166.469 42.5328V26.9168H171.205V50.5968H167.397L157.509 34.9808V50.5968H152.741ZM180.872 50.7568C180.36 50.7568 179.774 50.7035 179.112 50.5968C178.451 50.5115 177.811 50.2981 177.192 49.9568C176.595 49.6155 176.094 49.1035 175.688 48.4208C175.304 47.7168 175.112 46.7568 175.112 45.5408V32.3248C175.112 31.2795 175.272 30.4048 175.592 29.7008C175.912 28.9968 176.339 28.4421 176.872 28.0368C177.406 27.6315 177.992 27.3435 178.632 27.1728C179.272 27.0021 179.902 26.9168 180.52 26.9168C182.12 26.9168 183.528 26.9381 184.744 26.9808C185.982 27.0235 187.091 27.0768 188.072 27.1408C189.054 27.1835 189.95 27.2475 190.76 27.3328V31.3008H181.928C181.267 31.3008 180.755 31.4608 180.392 31.7808C180.03 32.1008 179.848 32.5915 179.848 33.2528V36.6768L189.224 36.9328V40.6768L179.848 40.9328V44.1968C179.848 44.7515 179.934 45.1888 180.104 45.5088C180.296 45.8075 180.542 46.0208 180.84 46.1488C181.16 46.2555 181.491 46.3088 181.832 46.3088H190.76V50.2768C189.822 50.3835 188.776 50.4688 187.624 50.5328C186.494 50.5968 185.342 50.6501 184.168 50.6928C183.016 50.7355 181.918 50.7568 180.872 50.7568ZM194.206 50.5968V26.9168H198.942V36.7088H202.078L206.942 26.9168H211.998L205.854 38.8208L212.19 50.5968H207.134L202.078 40.9968H198.942V50.5968H194.206ZM219.791 50.5968V31.1728H213.295V26.9168H231.055V31.1728H224.527V50.5968H219.791ZM230.514 50.5968L237.938 26.9168H243.922L251.346 50.5968H246.418L244.914 45.6368H236.85L235.378 50.5968H230.514ZM237.97 41.3808H243.794L240.882 30.9808L237.97 41.3808Z" fill="#020873"/>
</svg>
