<svg width="150" height="65" viewBox="0 0 150 65" fill="none" xmlns="http://www.w3.org/2000/svg">
<path fill-rule="evenodd" clip-rule="evenodd" d="M12.1772 8.02472C8.50892 8.02472 5.53516 12.3361 5.53516 17.6543V33.7119C5.53516 39.0302 8.50892 43.3415 12.1772 43.3415H27.0428L29.1772 56.3282L36.6421 43.036C39.5038 41.9639 41.6177 38.1958 41.6177 33.7119V17.6543C41.6177 12.3361 38.644 8.02472 34.9757 8.02472H12.1772Z" fill="#98077B"/>
<path d="M18.4912 30.8393L12.9783 28.22V25.2926L18.4912 22.7889V25.6971L15.2233 26.7178L18.4912 27.9311V30.8393ZM19.9707 34.903L23.7035 18.6867H26.0548L22.322 34.903H19.9707ZM27.5344 30.8393V27.9311L30.8023 26.7371L27.5344 25.6971V22.7889L33.0473 25.2926V28.22L27.5344 30.8393Z" fill="white"/>
<path d="M58.2315 40.7565C57.4643 40.7565 56.7851 40.6281 56.1945 40.3713C55.6161 40.1145 55.1203 39.6437 54.707 38.9589C54.3055 38.2742 53.9985 37.2984 53.786 36.0315C53.5852 34.7476 53.4849 33.087 53.4849 31.0498C53.4849 29.0811 53.5911 27.4718 53.8037 26.2221C54.028 24.9553 54.3468 23.9795 54.7601 23.2947C55.1734 22.5928 55.6754 22.1049 56.2654 21.831C56.856 21.5571 57.523 21.4202 58.2669 21.4202C58.8575 21.4202 59.4065 21.4715 59.9141 21.5742C60.4338 21.6599 60.9005 21.7711 61.3134 21.9081C61.7268 22.0279 62.075 22.1649 62.3584 22.3189V25.272C62.1458 25.2036 61.8569 25.135 61.4905 25.0666C61.1362 24.9981 60.7289 24.9468 60.2684 24.9125C59.8078 24.8612 59.3241 24.8355 58.816 24.8355C58.32 24.8355 57.8949 24.9211 57.5407 25.0923C57.1986 25.2463 56.9207 25.5459 56.7082 25.991C56.5078 26.419 56.354 27.0439 56.2477 27.8656C56.1536 28.6873 56.106 29.7573 56.106 31.0755C56.106 32.3423 56.1475 33.3866 56.23 34.2083C56.3246 35.03 56.4724 35.672 56.6728 36.1342C56.8737 36.5794 57.1455 36.896 57.4875 37.0844C57.8418 37.2555 58.2846 37.3412 58.816 37.3412C59.7137 37.3412 60.4399 37.3155 60.9945 37.2641C61.5613 37.2128 62.0163 37.1528 62.3584 37.0844V40.0118C62.0396 40.1658 61.6737 40.3028 61.2602 40.4226C60.8473 40.5253 60.3923 40.6024 59.8964 40.6537C59.4005 40.7222 58.8458 40.7565 58.2315 40.7565ZM69.0923 40.7565C68.1951 40.7565 67.4097 40.6367 66.7366 40.397C66.0636 40.1402 65.4968 39.6779 65.0362 39.0103C64.5874 38.3255 64.2508 37.3497 64.0267 36.0829C63.8025 34.816 63.6901 33.1641 63.6901 31.1268C63.6901 29.0896 63.8025 27.4376 64.0267 26.1708C64.263 24.8868 64.6051 23.9024 65.054 23.2177C65.5029 22.5329 66.0636 22.0621 66.7366 21.8054C67.4097 21.5486 68.1951 21.4202 69.0923 21.4202C69.9896 21.4202 70.775 21.5486 71.448 21.8054C72.1211 22.0621 72.6818 22.5329 73.1307 23.2177C73.5796 23.9024 73.9161 24.8868 74.1403 26.1708C74.3645 27.4376 74.4768 29.0896 74.4768 31.1268C74.4768 33.1641 74.3645 34.816 74.1403 36.0829C73.9161 37.3497 73.5796 38.3255 73.1307 39.0103C72.6818 39.6779 72.1211 40.1402 71.448 40.397C70.775 40.6367 69.9896 40.7565 69.0923 40.7565ZM69.0923 37.3412C69.6237 37.3412 70.0665 37.2555 70.4207 37.0844C70.775 36.9132 71.0523 36.6136 71.2532 36.1856C71.4658 35.7405 71.6191 35.1157 71.7137 34.311C71.8084 33.4893 71.8554 32.4279 71.8554 31.1268C71.8554 29.7573 71.8084 28.6616 71.7137 27.8399C71.6191 27.0182 71.4658 26.3933 71.2532 25.9654C71.0523 25.5202 70.775 25.2207 70.4207 25.0666C70.0665 24.9125 69.6237 24.8355 69.0923 24.8355C68.5848 24.8355 68.1536 24.9125 67.7993 25.0666C67.4451 25.2207 67.1556 25.5202 66.9314 25.9654C66.7189 26.3933 66.5595 27.0182 66.4532 27.8399C66.3586 28.6616 66.3115 29.7573 66.3115 31.1268C66.3115 32.4279 66.353 33.4893 66.4355 34.311C66.5302 35.1157 66.6835 35.7405 66.896 36.1856C67.1086 36.6136 67.392 36.9132 67.7462 37.0844C68.1121 37.2555 68.561 37.3412 69.0923 37.3412ZM76.4999 40.6024V21.5999H78.6077L84.0984 34.1313V21.5999H86.7198V40.6024H84.6121L79.139 28.071V40.6024H76.4999ZM88.9709 40.6024V21.5999H91.0787L96.5695 34.1313V21.5999H99.1909V40.6024H97.0831L91.6101 28.071V40.6024H88.9709ZM104.542 40.7308C104.258 40.7308 103.934 40.688 103.567 40.6024C103.202 40.5339 102.847 40.3627 102.505 40.0888C102.174 39.8149 101.897 39.4041 101.672 38.8562C101.46 38.2913 101.353 37.5209 101.353 36.5451V25.9397C101.353 25.1008 101.442 24.3989 101.619 23.834C101.796 23.2691 102.033 22.8239 102.328 22.4987C102.623 22.1734 102.948 21.9423 103.302 21.8054C103.656 21.6684 104.005 21.5999 104.347 21.5999C105.232 21.5999 106.012 21.617 106.685 21.6513C107.37 21.6855 107.984 21.7283 108.527 21.7797C109.07 21.8139 109.566 21.8653 110.015 21.9337V25.1179H105.126C104.76 25.1179 104.477 25.2463 104.276 25.5031C104.076 25.7599 103.975 26.1537 103.975 26.6844V29.432L109.164 29.6374V32.6419L103.975 32.8473V35.4666C103.975 35.9117 104.022 36.2626 104.117 36.5194C104.223 36.7591 104.359 36.9303 104.524 37.033C104.701 37.1186 104.884 37.1614 105.073 37.1614H110.015V40.3456C109.495 40.4312 108.917 40.4997 108.279 40.551C107.653 40.6024 107.016 40.6452 106.366 40.6794C105.728 40.7137 105.121 40.7308 104.542 40.7308ZM111.922 40.6024V21.5999H114.543V29.4577H116.279L118.971 21.5999H121.77L118.369 31.1525L121.876 40.6024H119.078L116.279 32.8987H114.543V40.6024H111.922ZM126.083 40.6024V25.0152H122.488V21.5999H132.318V25.0152H128.705V40.6024H126.083ZM132.019 40.6024L136.128 21.5999H139.441L143.55 40.6024H140.822L139.99 36.6221H135.526L134.712 40.6024H132.019ZM136.146 33.2068H139.37L137.758 24.8612L136.146 33.2068Z" fill="white"/>
</svg>
