<svg width="30" height="35" viewBox="0 0 30 35" fill="none" xmlns="http://www.w3.org/2000/svg">
<path d="M30 7.50001C30 10.7167 27.3833 13.3333 24.1667 13.3333C20.95 13.3333 18.3333 10.7167 18.3333 7.50001C18.3333 4.28334 20.95 1.66668 24.1667 1.66668C27.3833 1.66668 30 4.28334 30 7.50001ZM26.6667 16.3167C25.8333 16.5333 25 16.6667 24.1667 16.6667C21.7369 16.6623 19.4078 15.6951 17.6897 13.977C15.9716 12.2588 15.0044 9.92981 15 7.50001C15 5.05001 15.9667 2.83334 17.5 1.18334C17.1975 0.812576 16.8162 0.513959 16.3837 0.309249C15.9512 0.104539 15.4785 -0.00110751 15 8.75447e-06C13.1667 8.75447e-06 11.6667 1.50001 11.6667 3.33334V3.81668C6.71667 5.28334 3.33333 9.83334 3.33333 15V25L0 28.3333V30H30V28.3333L26.6667 25V16.3167ZM15 35C16.85 35 18.3333 33.5167 18.3333 31.6667H11.6667C11.6667 32.5507 12.0179 33.3986 12.643 34.0237C13.2681 34.6488 14.1159 35 15 35Z" fill="#FDBF50"/>
</svg>
