<svg width="25" height="23" viewBox="0 0 25 26" fill="none" xmlns="http://www.w3.org/2000/svg">
<path d="M16.625 0.187996C14.947 0.187996 13.383 0.867996 12.094 2.156C10.63 3.62 9.96001 5.42 10.156 7.344C10.303 8.772 10.955 10.212 12 11.5L4.75001 18.75L3.43701 17.437C2.79701 16.794 2.26601 17.327 1.62501 17.969L1.00001 18.625C0.358011 19.264 -0.171989 19.765 0.469011 20.406L1.78001 21.72L0.750011 22.75C0.597474 22.9015 0.476416 23.0817 0.393805 23.2802C0.311195 23.4786 0.268665 23.6915 0.268665 23.9065C0.268665 24.1215 0.311195 24.3343 0.393805 24.5328C0.476416 24.7313 0.597474 24.9115 0.750011 25.063C1.39001 25.702 2.42101 25.702 3.06301 25.063L14.438 13.688C15.67 14.46 17.008 14.875 18.312 14.875C19.989 14.875 21.556 14.195 22.844 12.906C24.309 11.443 24.978 9.643 24.781 7.719C24.605 5.988 23.686 4.246 22.219 2.781C20.557 1.117 18.572 0.187996 16.625 0.187996ZM16.688 2.25C18.081 2.25 19.528 2.963 20.781 4.219C21.895 5.329 22.59 6.621 22.719 7.875C22.852 9.179 22.393 10.421 21.375 11.438C20.463 12.348 19.4 12.812 18.25 12.812C16.856 12.812 15.412 12.098 14.156 10.844C13.043 9.731 12.348 8.442 12.219 7.188C12.087 5.884 12.544 4.643 13.563 3.625C14.475 2.715 15.539 2.25 16.688 2.25Z" fill="black"/>
</svg>
