<svg width="32" height="32" viewBox="0 0 32 32" fill="none" xmlns="http://www.w3.org/2000/svg">
<path d="M5.64279 0.285721C4.22198 0.285721 2.85937 0.850132 1.85472 1.85479C0.850056 2.85945 0.285645 4.22206 0.285645 5.64286V16.3571C0.285645 17.778 0.850056 19.1406 1.85472 20.1452C2.85937 21.1499 4.22198 21.7143 5.64279 21.7143H16.2428C16.59 22.698 17.284 23.5213 18.1946 24.03C19.1053 24.5387 20.1702 24.698 21.1899 24.4779C22.2096 24.2579 23.114 23.6736 23.7338 22.8345C24.3536 21.9955 24.6462 20.9592 24.5568 19.9199C24.4675 18.8806 24.0022 17.9096 23.2483 17.1887C22.4943 16.4678 21.5034 16.0465 20.4611 16.0037C19.4189 15.961 18.3968 16.2997 17.5863 16.9565C16.7759 17.6132 16.2327 18.5429 16.0585 19.5714H5.64279C4.79031 19.5714 3.97274 19.2328 3.36994 18.63C2.76715 18.0272 2.4285 17.2096 2.4285 16.3571V5.64286C2.4285 4.79038 2.76715 3.97282 3.36994 3.37002C3.97274 2.76723 4.79031 2.42858 5.64279 2.42858H16.3571C17.2096 2.42858 18.0271 2.76723 18.6299 3.37002C19.2327 3.97282 19.5714 4.79038 19.5714 5.64286V6.35715C19.5714 6.64131 19.6842 6.91383 19.8852 7.11476C20.0861 7.3157 20.3586 7.42858 20.6428 7.42858C20.9269 7.42858 21.1995 7.3157 21.4004 7.11476C21.6013 6.91383 21.7142 6.64131 21.7142 6.35715V5.64286C21.7142 4.22206 21.1498 2.85945 20.1451 1.85479C19.1405 0.850132 17.7779 0.285721 16.3571 0.285721H5.64279ZM15.7571 10.2857C15.4099 9.30206 14.7159 8.47875 13.8052 7.97001C12.8945 7.46127 11.8296 7.30202 10.81 7.52209C9.7903 7.74216 8.88585 8.32644 8.26606 9.16549C7.64626 10.0045 7.35364 11.0408 7.44303 12.0801C7.53241 13.1194 7.99765 14.0905 8.7516 14.8114C9.50555 15.5323 10.4965 15.9535 11.5387 15.9963C12.581 16.039 13.6031 15.7003 14.4135 15.0435C15.224 14.3868 15.7672 13.4571 15.9414 12.4286H26.3571C27.2096 12.4286 28.0271 12.7672 28.6299 13.37C29.2327 13.9728 29.5714 14.7904 29.5714 15.6429V26.3571C29.5714 27.2096 29.2327 28.0272 28.6299 28.63C28.0271 29.2328 27.2096 29.5714 26.3571 29.5714H15.6428C14.7903 29.5714 13.9727 29.2328 13.3699 28.63C12.7671 28.0272 12.4285 27.2096 12.4285 26.3571V25.6429C12.4285 25.3587 12.3156 25.0862 12.1147 24.8852C11.9138 24.6843 11.6412 24.5714 11.3571 24.5714C11.0729 24.5714 10.8004 24.6843 10.5995 24.8852C10.3985 25.0862 10.2856 25.3587 10.2856 25.6429V26.3571C10.2856 27.778 10.8501 29.1406 11.8547 30.1452C12.8594 31.1499 14.222 31.7143 15.6428 31.7143H26.3571C27.7779 31.7143 29.1405 31.1499 30.1451 30.1452C31.1498 29.1406 31.7142 27.778 31.7142 26.3571V15.6429C31.7142 14.2221 31.1498 12.8595 30.1451 11.8548C29.1405 10.8501 27.7779 10.2857 26.3571 10.2857H15.7571Z" fill="#FDBF50"/>
</svg>
