<svg width="31" height="30" viewBox="0 0 31 30" fill="none" xmlns="http://www.w3.org/2000/svg">
<path d="M27.3335 29.1875L18.0002 19.8542C17.1668 20.5208 16.2085 21.0486 15.1252 21.4375C14.0418 21.8264 12.8891 22.0208 11.6668 22.0208C8.63905 22.0208 6.07683 20.9719 3.98016 18.8742C1.8835 16.7764 0.834607 14.2142 0.833496 11.1875C0.833496 8.15971 1.88239 5.59749 3.98016 3.50082C6.07794 1.40416 8.64016 0.355268 11.6668 0.354156C14.6946 0.354156 17.2568 1.40305 19.3535 3.50082C21.4502 5.5986 22.4991 8.16082 22.5002 11.1875C22.5002 12.4097 22.3057 13.5625 21.9168 14.6458C21.5279 15.7292 21.0002 16.6875 20.3335 17.5208L29.7085 26.8958C30.0141 27.2014 30.1668 27.5764 30.1668 28.0208C30.1668 28.4653 30.0002 28.8542 29.6668 29.1875C29.3613 29.493 28.9724 29.6458 28.5002 29.6458C28.0279 29.6458 27.639 29.493 27.3335 29.1875ZM11.6668 18.6875C13.7502 18.6875 15.5213 17.958 16.9802 16.4992C18.4391 15.0403 19.1679 13.2697 19.1668 11.1875C19.1668 9.10416 18.4374 7.33304 16.9785 5.87416C15.5196 4.41527 13.7491 3.68638 11.6668 3.68749C9.5835 3.68749 7.81238 4.41693 6.3535 5.87582C4.89461 7.33471 4.16572 9.10527 4.16683 11.1875C4.16683 13.2708 4.89627 15.0419 6.35516 16.5008C7.81405 17.9597 9.58461 18.6886 11.6668 18.6875Z" fill="#FDBF50"/>
</svg>
