<svg width="34" height="34" viewBox="0 0 34 34" fill="none" xmlns="http://www.w3.org/2000/svg">
<path d="M12.4167 33.6667L11.75 28.3333C11.3889 28.1944 11.0483 28.0278 10.7283 27.8333C10.4083 27.6389 10.0961 27.4306 9.79167 27.2083L4.83333 29.2917L0.25 21.375L4.54167 18.125C4.51389 17.9306 4.5 17.7428 4.5 17.5617V16.4383C4.5 16.2572 4.51389 16.0694 4.54167 15.875L0.25 12.625L4.83333 4.70833L9.79167 6.79167C10.0972 6.56944 10.4167 6.36111 10.75 6.16667C11.0833 5.97222 11.4167 5.80555 11.75 5.66667L12.4167 0.333332H21.5833L22.25 5.66667C22.6111 5.80555 22.9517 5.97222 23.2717 6.16667C23.5917 6.36111 23.9039 6.56944 24.2083 6.79167L29.1667 4.70833L33.75 12.625L29.4583 15.875C29.4861 16.0694 29.5 16.2572 29.5 16.4383V17.5617C29.5 17.7428 29.4722 17.9306 29.4167 18.125L33.7083 21.375L29.125 29.2917L24.2083 27.2083C23.9028 27.4306 23.5833 27.6389 23.25 27.8333C22.9167 28.0278 22.5833 28.1944 22.25 28.3333L21.5833 33.6667H12.4167ZM17.0833 22.8333C18.6944 22.8333 20.0694 22.2639 21.2083 21.125C22.3472 19.9861 22.9167 18.6111 22.9167 17C22.9167 15.3889 22.3472 14.0139 21.2083 12.875C20.0694 11.7361 18.6944 11.1667 17.0833 11.1667C15.4444 11.1667 14.0622 11.7361 12.9367 12.875C11.8111 14.0139 11.2489 15.3889 11.25 17C11.25 18.6111 11.8122 19.9861 12.9367 21.125C14.0611 22.2639 15.4433 22.8333 17.0833 22.8333Z" fill="#FDBF50"/>
</svg>
